<svg height="283" viewBox="0 0 350 283" width="350" xmlns="http://www.w3.org/2000/svg"><g fill="none"><g fill="#1b657a" transform="translate(3 265)"><path d="m.42.63h4.78c2.38 0 2.56 1.08 2.56 2.9v3.22c0 2.38-.21 3.14-2.48 3.14h-2.45v7.68h-2.4v-16.94zm2.43 2.06v5.18h1.56c.58 0 .87-.12.87-.77v-3.55c0-.6-.11-.86-.92-.86z"/><path d="m21.46.63v6.89h2.3v-6.89h2.46v16.95h-2.48v-7.87h-2.27v7.87h-2.46v-16.95z"/><path d="m38.68.63 1.08 3.94c.34 1.27.42 2.26.53 3.26h.18c.05-.55.16-1.87.63-3.46l1.16-3.74h2.48l-3.09 9.84v7.1h-2.67v-7.08l-2.85-9.86z"/><path d="m56.71 14.48c0 .58 0 1.63 1.27 1.63 1.16 0 1.19-1.08 1.19-1.97 0-1.58-.32-2.3-2.01-4.56-1.48-1.94-2.56-3.38-2.56-5.57 0-.91.21-1.68.63-2.33.74-1.08 1.87-1.39 3.14-1.39 2.32 0 3.14 1.15 3.14 2.9v3.02h-2.24v-3c0-.53-.08-1.15-.98-1.15-1.14 0-1.24.86-1.24 1.7 0 1.73.58 2.52 2.4 4.92 1.19 1.61 2.22 2.98 2.22 5.16 0 1.13-.32 2.21-.87 2.9-.87 1.06-2.11 1.13-2.8 1.13-3.56 0-3.56-2.81-3.56-3.67v-2.83h2.27z"/><path d="m75.35.63v16.95h-2.43v-16.95z"/><path d="m86.96 5.31c0-1.49 0-4.85 4.17-4.85 3.85 0 3.85 2.95 3.85 4.15v2.16h-2.45v-2.62c0-.55 0-1.75-1.53-1.75-1.56 0-1.56 1.25-1.56 2.11v9.36c0 .96 0 1.97 1.5 1.97 1.56 0 1.56-1.1 1.56-2.14v-3.14h2.48v2.86c0 1.92-.55 4.37-4.09 4.37-1.37 0-2.67-.48-3.35-1.51-.58-.86-.58-1.9-.58-2.78z"/><path d="m108.48 14.48c0 .58 0 1.63 1.27 1.63 1.16 0 1.19-1.08 1.19-1.97 0-1.58-.32-2.3-2.01-4.56-1.48-1.94-2.56-3.38-2.56-5.57 0-.91.21-1.68.63-2.33.74-1.08 1.87-1.39 3.14-1.39 2.32 0 3.14 1.15 3.14 2.9v3.02h-2.24v-3c0-.53-.08-1.15-.98-1.15-1.14 0-1.24.86-1.24 1.7 0 1.73.58 2.52 2.4 4.92 1.19 1.61 2.22 2.98 2.22 5.16 0 1.13-.32 2.21-.87 2.9-.87 1.06-2.11 1.13-2.8 1.13-3.56 0-3.56-2.81-3.56-3.67v-2.83h2.27z"/><path d="m133 .63h8.24v1.99h-2.9v14.95h-2.51v-14.95h-2.83z"/><path d="m151.24 5.21c0-1.54.08-2.64.92-3.53.77-.79 1.9-1.18 3.06-1.18 1.03 0 2.03.22 2.8.96 1.03.98 1.03 2.16 1.03 4.25v8.04c0 1.25-.05 3.98-4.07 3.98-.5 0-2.4 0-3.3-1.66-.45-.77-.45-1.58-.45-2.4v-8.46zm5.39-.17c0-1.46 0-2.59-1.43-2.59-.19 0-1.06 0-1.37.82-.13.34-.13.7-.13 1.75v9.1c0 .84.08 1.78 1.43 1.78 1.45 0 1.5-1.1 1.5-2.3z"/><path d="m170.73 5.23c0-1.46 0-2.45.69-3.41.87-1.27 2.27-1.39 3.06-1.39 3.33 0 3.33 2.47 3.33 3.72v1.78h-2.27v-1.9c0-.96-.05-1.73-1.13-1.73-1.24 0-1.24 1.03-1.24 1.87v9.75c0 1.1 0 2.04 1.21 2.04 1.24 0 1.24-1.01 1.24-1.51v-3.84h-1.5v-2.06h3.93v9.02h-1.48l-.21-.79c-.34.38-.87 1.06-2.24 1.06-3.38 0-3.38-3-3.38-4.22v-8.39z"/><path d="m189.97.63h6.15v2.14h-3.64v4.94h3.27v2.09h-3.27v5.64h3.67v2.14h-6.18z"/><path d="m206.16.63h8.24v1.99h-2.9v14.95h-2.51v-14.95h-2.83z"/><path d="m226.88.63v6.89h2.3v-6.89h2.46v16.95h-2.48v-7.87h-2.27v7.87h-2.46v-16.95z"/><path d="m243.7.63h6.15v2.14h-3.64v4.94h3.27v2.09h-3.27v5.64h3.67v2.14h-6.18z"/><path d="m261.23.63h4.01c3.01 0 3.35.74 3.35 4.1 0 2.98-.08 4.2-2.08 4.18v.1c1.77.19 2.01 1.1 2.01 3.36v1.85c0 2.04.05 2.35.47 3.36h-2.56c-.21-.98-.4-1.82-.4-3.55v-1.2c0-.65-.03-1.99-.32-2.54-.29-.5-.58-.5-2.03-.5v7.8h-2.46v-16.96zm2.48 2.04v5.23h1.16c1.24 0 1.29-.5 1.29-3.31 0-1.87-.13-1.92-1.19-1.92z"/></g><g fill="#9bc3b6" transform="translate(117)"><path d="m.58.45h30.76v184.55c0 15.89 0 31.77 19.27 31.77 18.93 0 18.93-15.89 18.93-33.8v-182.52h31.1v180.83c0 16.56 0 61.52-51.04 61.52-49.01 0-49.01-42.93-49.01-55.77v-186.58z"/><path d="m125.3.45h61.18c30.42 0 32.79 15.21 32.79 40.9v45.29c0 33.46-2.7 44.28-31.77 44.28h-31.43v108.16h-30.77zm31.1 29.06v73.01h19.94c7.44 0 11.15-1.69 11.15-10.82v-50.02c0-8.45-1.35-12.17-11.83-12.17z"/></g><g fill="#1b657a"><path d="m66.35 239.06v-18.2h11.48c5.74 0 11.48 0 11.48-8.82 0-8.96-5.88-8.96-14.7-8.96-7 0-9.94 1.4-13.16 6.16l-11.62 17.36c-6.3 9.24-13.16 11.76-23.24 11.76-7.7 0-15.12-.7-20.44-7.14-3.08-3.64-5.88-10.36-5.88-19.88 0-10.64 4.34-25.2 21.28-25.2h9.8v18.06h-7.14c-4.76 0-10.08 0-10.08 7.98 0 4.9 1.82 8.4 9.8 8.4 8.26 0 10.08-1.82 12.74-5.74l12.18-17.92c2.52-3.5 6.02-7.28 9.66-9.38 4.48-2.66 7.56-2.66 15.54-2.66 8.82 0 14.28 0 19.46 3.22 8.82 5.46 9.8 16.8 9.8 23.52 0 15.54-5.88 27.44-22.54 27.44z"/><path d="m2.37 179.98v-54.74h14.28v18.2h84.56v18.34h-84.56v18.2z"/><path d="m2.23 117.82v-47.88h15.12v29.68h23.24v-27.86h14.98v27.86h30.38v-30.94h15.26v49.14z"/><path d="m2.23 53.56v-36.68c0-16.66 13.02-16.66 22.4-16.66h12.88c15.96 0 22.54 1.68 22.54 19.6v15.4h41.16v18.34zm43.68-18.34v-8.82c0-6.86-1.26-8.26-8.82-8.26h-10.08c-6.72 0-10.08 0-10.08 8.12v8.96z"/></g><g fill="#aa4b90" transform="translate(288 156)"><path d="m41.68 34.96c-.83 0-1.52-.66-1.54-1.5-.07-2.69-.24-5.36-.52-7.93-.09-.85.52-1.6 1.37-1.7.85-.09 1.6.52 1.69 1.37.28 2.65.46 5.4.54 8.18.02.85-.65 1.56-1.5 1.58-.01 0-.03 0-.04 0"/><path d="m30.94 71.59c-4.97 0-9.13-7.43-11.14-19.87-.14-.84.44-1.63 1.27-1.76.83-.14 1.63.44 1.76 1.27 1.92 11.87 5.54 17.28 8.1 17.28 1.7 0 4.28-2.53 6.4-9.64.24-.81 1.1-1.28 1.91-1.04.82.24 1.28 1.1 1.04 1.91-2.3 7.76-5.53 11.85-9.34 11.85"/><path d="m21.32 53.02c-.74 0-1.4-.54-1.52-1.29-.1-.6-.19-1.2-.27-1.82-.12-.84.47-1.62 1.31-1.74.84-.13 1.62.47 1.74 1.31.08.59.17 1.18.26 1.75.14.84-.43 1.63-1.27 1.76-.08.02-.17.03-.25.03"/><path d="m20.21 34.64c-.02 0-.03 0-.05 0-.85-.02-1.52-.73-1.5-1.58.45-15.55 4.48-32.29 12.27-32.29 4.02 0 7.49 4.75 9.77 13.37.22.82-.27 1.67-1.1 1.88-.82.22-1.66-.27-1.88-1.1-2.16-8.17-5.01-11.07-6.8-11.07-4.04 0-8.69 11.77-9.19 29.3-.01.83-.69 1.49-1.52 1.49"/><path d="m38.46 45.57c-.52 0-1.02-.26-1.31-.73-.45-.72-.22-1.67.5-2.12 14.67-9.09 22.7-19.26 20.73-22.71-.34-.6-1.03-1.04-2.04-1.31-5.56-1.49-17.86 2.39-29.89 9.44-.73.43-1.68.18-2.11-.55s-.18-1.68.55-2.11c12.89-7.55 25.85-11.47 32.25-9.75 1.84.49 3.16 1.42 3.92 2.76 3.7 6.48-8.15 18.41-21.78 26.85-.27.15-.55.23-.82.23"/><path d="m8.31 56.88c-3.69 0-6.27-1.06-7.48-3.18-2.04-3.58.49-9.14 7.13-15.64.6-.6 1.58-.59 2.18.02s.59 1.58-.02 2.18c-6.35 6.22-7.53 10.31-6.61 11.92 1.18 2.07 7.14 2.58 17.44-1.2.8-.29 1.68.12 1.98.92.29.8-.12 1.68-.92 1.98-5.46 2-10.11 3-13.7 3"/><path d="m53.68 56.87c-6.99 0-17.91-3.79-28.8-10.17-14.59-8.54-27.97-21.34-24.04-28.22 2.37-4.18 10.1-4.24 21.21-.17.8.29 1.21 1.18.91 1.98-.29.8-1.17 1.21-1.98.91-10.32-3.78-16.29-3.27-17.47-1.2-1.9 3.32 5.91 14.07 22.92 24.04 12.04 7.05 24.33 10.94 29.89 9.45 1.01-.27 1.7-.71 2.04-1.31.9-1.59-.24-5.62-6.44-11.75-.6-.6-.61-1.57-.01-2.18.6-.6 1.58-.61 2.18-.01 6.5 6.43 8.97 11.92 6.95 15.46-.76 1.34-2.08 2.27-3.92 2.76-.99.28-2.15.41-3.44.41"/><path d="m27.86 36.18c0 1.7 1.38 3.08 3.08 3.08s3.08-1.38 3.08-3.08-1.38-3.08-3.08-3.08-3.08 1.38-3.08 3.08"/></g></g></svg>